<?xml version="1.0" encoding="utf-8"?>
<!-- Generator: Adobe Illustrator 22.1.0, SVG Export Plug-In . SVG Version: 6.00 Build 0)  -->
<svg version="1.1" id="Layer_1" xmlns="http://www.w3.org/2000/svg" xmlns:xlink="http://www.w3.org/1999/xlink" x="0px" y="0px"
	 viewBox="0 0 512 512" style="enable-background:new 0 0 512 512;" xml:space="preserve">
<style type="text/css">
	.st0{fill:#5BBC7D;}
	.st1{fill:#297045;}
	.st2{fill:#71FF74;}
</style>
<g>
	<path class="st0" d="M265.6,30.4C169.1-3.2,63.7,47.7,30,144.1C-1.3,233.7,40.3,331,123.6,371.4c3.6-4,7.4-7.8,11.3-11.4
		c-51.8-48.5-73.1-124.8-48.3-196.1C116.9,77.1,205.4,27.2,293.1,42.6C284.4,37.9,275.3,33.8,265.6,30.4L265.6,30.4z"/>
	<path class="st1" d="M387,166.1c-10.5,3.5-21.8-2.2-25.3-12.7C339.4,85.5,276.4,40,205,40c-91,0-165,74-165,165
		c0,60.6,33.1,116.2,86.5,145.1c9.7,5.3,13.3,17.4,8,27.1c-3.6,6.7-10.5,10.5-17.6,10.5c-3.2,0-6.5-0.8-9.5-2.4
		C41.1,349.4,0,280.3,0,205C0,92,92,0,205,0c44,0,86,13.7,121.3,39.8c34.6,25.5,60,60.4,73.4,101.1
		C403.2,151.3,397.5,162.6,387,166.1L387,166.1z M492,378c-11,0-20,9-20,20v94c0,11,9,20,20,20s20-9,20-20v-94
		C512,387,503,378,492,378z M412,401c-11,0-20,9-20,20v71c0,11,9,20,20,20s20-9,20-20v-71C432,410,423,401,412,401z M332,445
		c-11,0-20,9-20,20v27c0,11,9,20,20,20s20-9,20-20v-27C352,454,343,445,332,445z M252,428c-11,0-20,9-20,20v44c0,11,9,20,20,20
		c11,0,20-9,20-20v-44C272,437,263,428,252,428z"/>
	<path class="st2" d="M101.6,512c-5.1,0-10.3-2-14.2-5.9c-7.8-7.8-7.7-20.5,0.1-28.3l116-115.2c0.2-0.2,0.5-0.5,0.7-0.7
		c25.3-22.8,63.1-24.1,89.9-3.1l1.7,1.2c0.2,0.1,0.4,0.3,0.6,0.5c12.4,9.8,30.4,8.3,40.9-3.5c0.1-0.1,0.2-0.2,0.3-0.3l70.9-75.4
		c7.6-8.1,20.2-8.4,28.3-0.9c8.1,7.6,8.4,20.2,0.9,28.3L366.9,384c-24.6,27.1-66.2,30.7-95,8.2l-1.7-1.2c-0.2-0.1-0.4-0.3-0.6-0.5
		c-11.4-9-27.4-8.6-38.3,0.9L115.7,506.2C111.8,510.1,106.7,512,101.6,512L101.6,512z M512,318v-54c0-33.1-26.9-60-60-60h-54
		c-11,0-20,9-20,20s9,20,20,20h54c11,0,20,9,20,20v54c0,11,9,20,20,20S512,329,512,318z"/>
</g>
<g>
	<path class="st1" d="M271.2,160.8h-14.5c-1-8.4-3.9-16.3-8.5-22.4h23.1c5.5,0,10-4.1,10-9.6c0-5.5-4.5-9.8-10-9.8H193
		c-0.3,0-0.6,0-0.9,0c-0.2,0-0.4,0-0.6,0h-37.3c-5.5,0-10,4.2-10,9.8s4.5,9.6,10,9.6h44.3c14,1,28.7,6.4,32.5,22.4h-76.9
		c-5.5,0-10,4.5-10,10c0,5.5,4.5,10,10,10h75.9c-4.7,12.6-17.7,20.3-35.7,20.3h-19.9h-0.1H163c-5.4,0-9.8,4.4-9.8,9.8
		c0,5.4,4.4,9.8,9.8,9.8h11.5c0,0,0.1,0,0.1,0h18.1c19.7,0.7,28.4,9.3,33.4,32.6c3.9,17.3,6.8,28.6,9.1,35.4
		c1.7,6.3,5.1,15.7,10.9,21.3c2.3,2.2,5.2,3.3,8.2,3.3c3.1,0,6.2-1.2,8.5-3.6c4.2-4.4,4.3-11.2,0.4-15.8c0-0.1,0-0.1,0-0.2
		c-3.6-6.7-7.9-24.5-13.2-47.1c-4.2-18.4-12.1-29.9-24-35c15-5.7,25.2-16.7,29.3-30.7h16.1c5.5,0,10-4.5,10-10
		C281.2,165.3,276.8,160.8,271.2,160.8z"/>
</g>
</svg>
