<?xml version="1.0" encoding="utf-8"?>
<!-- Generator: Adobe Illustrator 22.1.0, SVG Export Plug-In . SVG Version: 6.00 Build 0)  -->
<svg version="1.1" id="Layer_1" xmlns="http://www.w3.org/2000/svg" xmlns:xlink="http://www.w3.org/1999/xlink" x="0px" y="0px"
	 viewBox="0 0 512 512" style="enable-background:new 0 0 512 512;" xml:space="preserve">
<style type="text/css">
	.st0{fill:#297045;}
</style>
<path class="st0" d="M496,320h-56V200c4.4,0,8-3.6,8-8v-16h32c4.4,0,8-3.6,8-8v-64c0-4.4-3.6-8-8-8H352c-4.4,0-8,3.6-8,8v64
	c0,4.4,3.6,8,8,8h32v16c0,4.4,3.6,8,8,8v120h-80v-88c0-4.4-3.6-8-8-8h-40v-88c0-4.4-3.6-8-8-8h-96c-4.4,0-8,3.6-8,8v88h-40
	c-4.4,0-8,3.6-8,8v88H16c-4.4,0-8,3.6-8,8v32c0,4.4,3.6,8,8,8h32v40c0,4.4,3.6,8,8,8h32c4.4,0,8-3.6,8-8v-16h320v16c0,4.4,3.6,8,8,8
	h32c4.4,0,8-3.6,8-8v-40h32c4.4,0,8-3.6,8-8v-32C504,323.6,500.4,320,496,320z M456,112h16v48h-16V112z M360,160v-48h80v48H360z
	 M400,184v-8h32v8H400z M424,200v120h-16V200H424z M272,288c4.4,0,8-3.6,8-8v-40h16v80h-80v-80h16v40c0,4.4,3.6,8,8,8H272z M264,240
	v32h-16v-32H264z M200,144h16v32h-16V144z M168,144h16v40c0,4.4,3.6,8,8,8h32c4.4,0,8-3.6,8-8v-40h16v80h-80V144z M152,240h16v32
	h-16V240z M120,240h16v40c0,4.4,3.6,8,8,8h32c4.4,0,8-3.6,8-8v-40h16v80h-80V240z M80,400H64v-8h16V400z M448,400h-16v-8h16V400z
	 M448,376H64v-8h384V376z M488,352H24v-16h464V352z"/>
</svg>
